<svg width="36" height="33" viewBox="0 0 36 33" fill="none" xmlns="http://www.w3.org/2000/svg">
<path d="M0.555949 9.07484C0.0886195 9.2377 -0.137964 9.81124 0.0886195 10.2502C0.308123 10.6609 0.364769 10.6751 2.46067 10.6963C4.0326 10.7105 4.39371 10.7388 4.45036 10.8167C4.47868 10.8734 4.78316 12.3249 5.12303 14.0385C5.99396 18.4922 5.93732 18.2019 6.7162 22.5424C7.23309 25.4031 7.48092 26.6068 7.60129 26.8758C7.91993 27.5768 8.59968 28.0867 9.3998 28.2424C9.93794 28.3416 23.1223 28.3416 23.6817 28.2354C24.4464 28.0937 25.1261 27.591 25.4731 26.9113C25.5581 26.7413 26.1245 24.3622 26.8326 21.1829C27.8806 16.4671 28.0363 15.6953 27.9938 15.3555C27.9018 14.5412 27.3566 13.7481 26.6202 13.3941L26.2237 13.1958L16.4522 13.1604L6.6808 13.125L6.42589 11.8363C6.28427 11.1283 6.11434 10.406 6.05061 10.229C5.90191 9.83957 5.47707 9.40764 5.03098 9.18814C4.71235 9.03236 4.6203 9.02528 2.75098 9.00404C1.33483 8.98988 0.740048 9.01112 0.555949 9.07484ZM26.1245 15.1289C26.2449 15.2634 26.3299 15.4404 26.3299 15.5537C26.3299 15.8936 24.057 26.0049 23.9295 26.2244C23.8587 26.3448 23.71 26.4722 23.5684 26.5218C23.2143 26.6422 9.90254 26.6422 9.5485 26.5218C9.40688 26.4722 9.25819 26.3519 9.18738 26.2244C9.10949 26.097 8.80502 24.5321 8.38018 22.1884C7.6367 18.0178 7.16229 15.3625 7.09856 15.051L7.05608 14.8598L16.4876 14.874L25.9192 14.8952L26.1245 15.1289Z" fill="black"/>
<path d="M10.4547 29.4111C9.28636 29.843 8.95357 31.3229 9.83158 32.1938C10.1998 32.562 10.4476 32.6611 10.9999 32.6611C11.7292 32.6611 12.2319 32.3567 12.5647 31.7123C12.7418 31.3583 12.7347 30.629 12.5435 30.2608C12.1399 29.489 11.2336 29.1208 10.4547 29.4111Z" fill="black"/>
<path d="M21.6426 29.4037C21.2461 29.5453 21.0408 29.7011 20.8142 30.0198C20.2194 30.834 20.4885 31.9953 21.3736 32.4909C21.6285 32.6326 21.7913 32.668 22.1949 32.668C22.6268 32.668 22.7401 32.6396 23.0446 32.4555C23.257 32.321 23.4695 32.1086 23.604 31.8962C23.7952 31.5846 23.8164 31.4855 23.8164 31.004C23.8164 30.5225 23.7952 30.4234 23.604 30.1118C23.2004 29.4604 22.3224 29.1417 21.6426 29.4037Z" fill="black"/>
<circle cx="26" cy="10" r="10" fill="#4B3A63"/>
<path d="M30.0938 12.9609V15H22.3984C22.4818 14.2292 22.7318 13.5 23.1484 12.8125C23.5651 12.1198 24.388 11.2031 25.6172 10.0625C26.6068 9.14062 27.2135 8.51562 27.4375 8.1875C27.7396 7.73438 27.8906 7.28646 27.8906 6.84375C27.8906 6.35417 27.7578 5.97917 27.4922 5.71875C27.2318 5.45312 26.8698 5.32031 26.4062 5.32031C25.9479 5.32031 25.5833 5.45833 25.3125 5.73438C25.0417 6.01042 24.8854 6.46875 24.8438 7.10938L22.6562 6.89062C22.7865 5.68229 23.1953 4.8151 23.8828 4.28906C24.5703 3.76302 25.4297 3.5 26.4609 3.5C27.5911 3.5 28.4792 3.80469 29.125 4.41406C29.7708 5.02344 30.0938 5.78125 30.0938 6.6875C30.0938 7.20312 30 7.69531 29.8125 8.16406C29.6302 8.6276 29.3385 9.11458 28.9375 9.625C28.6719 9.96354 28.1927 10.4505 27.5 11.0859C26.8073 11.7214 26.3672 12.1432 26.1797 12.3516C25.9974 12.5599 25.849 12.763 25.7344 12.9609H30.0938Z" fill="white"/>
</svg>
