<svg width="625" height="209" viewBox="0 0 625 209" fill="none" xmlns="http://www.w3.org/2000/svg">
<g clip-path="url(#clip0_189_837)">
<path d="M202.621 145.894V149.427H138.878V145.846C147.747 145.846 154.093 138.303 154.093 124.053V11.7441L97.9455 151.36H94.34L35.2605 25.5887V96.435C35.2605 96.435 34.8277 145.894 63.9591 145.894V149.427H0V145.846C31.655 145.846 31.655 96.3871 31.655 96.3871V19.9315C23.6512 5.87204 13.0995 5.87204 7.8116 5.46626V1.88574H61.0027L111.862 108.179L154.069 1.88574H200.698V5.46626C191.637 5.46626 184.45 11.1234 184.45 23.9178V124.172C184.474 138.351 193.559 145.894 202.621 145.894Z" fill="white"/>
<path d="M360.777 76.7183C360.777 118.443 334.338 151.36 287.971 151.36C241.607 151.36 215.143 118.443 215.143 76.7183C215.143 34.9934 241.583 0 287.971 0C334.361 0 360.777 35.2322 360.777 76.7183ZM324.265 76.7183C324.265 19.287 312.873 3.58051 287.971 3.58051C263.071 3.58051 251.245 19.287 251.245 76.7183C251.245 134.15 262.854 147.779 287.971 147.779C313.089 147.779 324.219 134.364 324.219 76.7183H324.265Z" fill="white"/>
<path d="M417.524 145.894H427.45C459.731 145.894 483.574 113.406 488.238 100.541H492.035L486.747 149.426H375.316L459.105 5.41839H449.178C421.105 5.41839 393.681 23.0106 386.276 44.1835H382.071L386.061 1.83789H495.617L417.524 145.894Z" fill="white"/>
<path d="M625 103.763V149.427H506.167V145.846C515.036 145.846 518.425 134.961 518.425 120.687V30.8161C518.425 17.8309 515.47 5.46626 506.167 5.46626V1.88574H622.26V41.7249H618.678C613.87 5.46623 556.618 5.46626 556.618 5.46626H549.023V73.1617H556.618C556.618 73.1617 588.706 73.1617 590.82 51.3682H594.402V98.5355H590.82C588.706 76.7183 556.618 76.7183 556.618 76.7183H549.023V145.942H556.618C556.618 145.942 612.549 145.942 621.516 103.811L625 103.763Z" fill="white"/>
<path d="M254.49 119.111C245.741 83.7121 272.853 77.124 299.486 67.194C315.131 61.2505 320.66 50.2463 320.996 34.0625C322.487 39.0517 322.967 44.2838 322.415 49.4586C320.611 66.836 302.536 74.5462 287.971 79.129C265.186 86.2903 254.514 94.3105 254.49 119.111Z" fill="white"/>
<path d="M176.183 208.336V180.101H193.886V183.384H179.74V193.07H192.314V196.394H179.74V208.336H176.183ZM234.232 208.336L231.295 200.826H218.474L215.537 208.336H211.939L222.692 180.101H227.159L237.913 208.336H234.232ZM224.967 183.918H224.76L219.549 197.502H230.179L224.967 183.918ZM269.544 208.665C268.027 208.665 266.331 208.61 264.456 208.501C262.609 208.391 260.968 208.254 259.534 208.09V204.848C263.119 205.204 266.111 205.382 268.51 205.382C269.999 205.382 271.17 205.327 272.025 205.217C272.908 205.081 273.652 204.848 274.259 204.52C274.81 204.191 275.169 203.713 275.334 203.083C275.499 202.427 275.582 201.565 275.582 200.498C275.582 199.212 275.513 198.309 275.375 197.789C275.238 197.242 274.907 196.845 274.383 196.599C273.886 196.353 273.018 196.175 271.777 196.065L264.746 195.286C263.036 195.094 261.74 194.697 260.858 194.096C260.003 193.466 259.424 192.659 259.121 191.674C258.845 190.662 258.707 189.349 258.707 187.734C258.707 185.491 259.093 183.794 259.865 182.645C260.665 181.496 261.768 180.73 263.174 180.347C264.608 179.964 266.524 179.772 268.923 179.772C270.522 179.772 272.149 179.841 273.804 179.978C275.458 180.114 276.768 180.279 277.733 180.47V183.589C276.685 183.425 275.389 183.302 273.845 183.22C272.301 183.11 270.867 183.056 269.544 183.056C267.999 183.056 266.759 183.124 265.821 183.261C264.884 183.398 264.153 183.63 263.629 183.959C263.05 184.287 262.678 184.725 262.512 185.272C262.347 185.819 262.264 186.599 262.264 187.611C262.264 188.733 262.347 189.554 262.512 190.074C262.678 190.566 262.995 190.935 263.464 191.182C263.932 191.401 264.704 191.565 265.78 191.674L272.728 192.454C274.383 192.618 275.665 192.905 276.575 193.316C277.485 193.726 278.147 194.465 278.56 195.532C278.946 196.517 279.139 198.09 279.139 200.252C279.139 202.741 278.753 204.602 277.981 205.833C277.209 207.037 276.175 207.817 274.879 208.172C273.583 208.501 271.805 208.665 269.544 208.665ZM321.737 208.336V195.819H306.804V208.336H303.248V180.101H306.804V192.413H321.737V180.101H325.253V208.336H321.737ZM350.707 208.336V180.101H354.262V208.336H350.707ZM390.418 208.665C386.641 208.665 383.964 208.295 382.393 207.557C380.822 206.818 379.817 205.532 379.374 203.699C378.961 201.838 378.754 198.678 378.754 194.219C378.754 189.759 378.961 186.613 379.374 184.779C379.817 182.919 380.822 181.619 382.393 180.881C383.964 180.142 386.641 179.772 390.418 179.772C394.166 179.772 396.829 180.142 398.4 180.881C400 181.619 401.005 182.919 401.419 184.779C401.861 186.613 402.082 189.759 402.082 194.219C402.082 198.678 401.861 201.838 401.419 203.699C401.005 205.532 400 206.818 398.4 207.557C396.829 208.295 394.166 208.665 390.418 208.665ZM390.418 205.382C393.23 205.382 395.132 205.204 396.125 204.848C397.119 204.492 397.765 203.603 398.07 202.18C398.371 200.758 398.524 198.104 398.524 194.219C398.524 190.333 398.371 187.68 398.07 186.257C397.765 184.834 397.119 183.945 396.125 183.589C395.132 183.234 393.23 183.056 390.418 183.056C387.606 183.056 385.688 183.234 384.668 183.589C383.677 183.945 383.028 184.834 382.723 186.257C382.422 187.68 382.27 190.333 382.27 194.219C382.27 198.104 382.422 200.758 382.723 202.18C383.028 203.603 383.677 204.492 384.668 204.848C385.688 205.204 387.606 205.382 390.418 205.382ZM445.169 208.336L430.156 186.749H429.989V208.336H426.557V180.101H430.196L445.002 201.195H445.169V180.101H448.561V208.336H445.169Z" fill="white"/>
</g>
<defs>
<clipPath id="clip0_189_837">
<rect width="625" height="208.906" fill="white"/>
</clipPath>
</defs>
</svg>
