<svg width="28" height="28" viewBox="0 0 28 28" fill="none" xmlns="http://www.w3.org/2000/svg">
<g clip-path="url(#clip0_125_239)">
<g clip-path="url(#clip1_125_239)">
<path d="M11.5548 0.0604038C8.85322 0.33931 6.354 1.5315 4.4126 3.46744C3.06729 4.81275 2.15947 6.27837 1.57979 8.03931C0.808691 10.3799 0.808691 12.8081 1.57979 15.1487C2.15947 16.9151 3.07275 18.3862 4.42354 19.726C7.09229 22.3784 10.729 23.5815 14.4806 23.051C16.411 22.7776 18.347 21.9846 19.8673 20.8417C20.0313 20.7159 20.179 20.6229 20.2009 20.6284C20.2228 20.6393 21.8798 22.2581 23.8813 24.2268C26.1618 26.469 27.6001 27.8417 27.7313 27.9018C28.2673 28.1534 28.8688 27.8362 28.9782 27.2456C29.0657 26.7862 29.372 27.1143 23.3782 21.1971L21.5079 19.3487L21.8251 18.9768C23.1923 17.3963 24.0946 15.3948 24.4392 13.2073C24.5704 12.3542 24.5704 10.7901 24.4392 9.92603C24.0509 7.41587 22.9517 5.26118 21.1196 3.44009C18.604 0.940872 15.0985 -0.300533 11.5548 0.0604038ZM14.1743 1.89244C16.3837 2.21509 18.3251 3.17759 19.8618 4.70884C21.7431 6.59556 22.722 8.94166 22.722 11.594C22.722 12.5729 22.6345 13.2456 22.4048 14.0932C21.2454 18.4026 17.3134 21.3831 12.7853 21.3831C10.0892 21.3831 7.58447 20.3604 5.71416 18.4901C4.44541 17.2213 3.59775 15.7557 3.13838 14.0549C2.73369 12.5401 2.73369 10.6479 3.13838 9.13306C4.05713 5.70962 6.7751 3.01353 10.204 2.12759C11.4509 1.80494 12.9767 1.71197 14.1743 1.89244Z" fill="black"/>
</g>
</g>
<defs>
<clipPath id="clip0_125_239">
<rect width="28" height="28" fill="white"/>
</clipPath>
<clipPath id="clip1_125_239">
<rect width="28" height="28" fill="white" transform="translate(1)"/>
</clipPath>
</defs>
</svg>
