<svg width="104" height="35" viewBox="0 0 104 35" fill="none" xmlns="http://www.w3.org/2000/svg">
<g clip-path="url(#clip0_4114_135)">
<path d="M33.7161 24.2769V24.8648H23.1093V24.269C24.5852 24.269 25.6411 23.0138 25.6411 20.6425V1.95439L16.2981 25.1865H15.6982L5.86735 4.25813V16.047C5.86735 16.047 5.79533 24.2769 10.6428 24.2769V24.8648H0V24.269C5.26739 24.269 5.26739 16.039 5.26739 16.039V3.31678C3.93555 0.977285 2.17975 0.977285 1.29985 0.909763V0.313965H10.1509L18.6139 18.0012L25.6371 0.313965H33.3961V0.909763C31.8883 0.909763 30.6925 1.85112 30.6925 3.9801V20.6624C30.6964 23.0218 32.2083 24.2769 33.7161 24.2769Z" fill="#4B3A63"/>
<path d="M60.0332 12.7659C60.0332 19.7089 55.6337 25.1863 47.9183 25.1863C40.2033 25.1863 35.7998 19.7089 35.7998 12.7659C35.7998 5.8229 40.1993 0 47.9183 0C55.6376 0 60.0332 5.86264 60.0332 12.7659ZM53.9576 12.7659C53.9576 3.20936 52.0621 0.595797 47.9183 0.595797C43.7749 0.595797 41.8071 3.20936 41.8071 12.7659C41.8071 22.3225 43.7389 24.5905 47.9183 24.5905C52.0979 24.5905 53.95 22.3582 53.95 12.7659H53.9576Z" fill="#4B3A63"/>
<path d="M69.4759 24.2765H71.1276C76.4992 24.2765 80.4666 18.8707 81.2428 16.7298H81.8746L80.9947 24.8644H62.4525L76.395 0.901459H74.7432C70.0719 0.901459 65.5085 3.82881 64.2763 7.35197H63.5766L64.2405 0.305664H82.4706L69.4759 24.2765Z" fill="#4B3A63"/>
<path d="M104 17.2663V24.8647H84.2262V24.269C85.7021 24.269 86.266 22.4577 86.266 20.0825V5.12798C86.266 2.96724 85.7742 0.909762 84.2262 0.909762V0.313965H103.544V6.94319H102.948C102.148 0.909757 92.6212 0.909762 92.6212 0.909762H91.3576V12.1743H92.6212C92.6212 12.1743 97.9608 12.1743 98.3126 8.54784H98.9085V16.3965H98.3126C97.9608 12.7661 92.6212 12.7661 92.6212 12.7661H91.3576V24.2848H92.6212C92.6212 24.2848 101.928 24.2848 103.42 17.2743L104 17.2663Z" fill="#4B3A63"/>
<path d="M42.3471 19.8201C40.8913 13.9297 45.4028 12.8334 49.8344 11.181C52.4378 10.1921 53.3578 8.36096 53.4138 5.66797C53.6618 6.49818 53.7416 7.36879 53.6499 8.22988C53.3497 11.1215 50.342 12.4045 47.9184 13.167C44.1269 14.3587 42.3511 15.6932 42.3471 19.8201Z" fill="#43444A"/>
<path d="M29.3169 34.6671V29.9687H32.2625V30.515H29.9088V32.1267H32.001V32.6798H29.9088V34.6671H29.3169ZM38.9762 34.6671L38.4875 33.4174H36.354L35.8654 34.6671H35.2666L37.056 29.9687H37.7993L39.5887 34.6671H38.9762ZM37.4345 30.6038H37.4001L36.5329 32.8642H38.3017L37.4345 30.6038ZM44.852 34.7218C44.5997 34.7218 44.3175 34.7126 44.0055 34.6944C43.6981 34.6762 43.4251 34.6535 43.1865 34.6261V34.0866C43.783 34.1458 44.2808 34.1754 44.68 34.1754C44.9277 34.1754 45.1227 34.1663 45.265 34.1481C45.4118 34.1253 45.5357 34.0866 45.6366 34.032C45.7284 33.9774 45.788 33.8977 45.8156 33.793C45.8431 33.6837 45.8569 33.5403 45.8569 33.3628C45.8569 33.1488 45.8454 32.9985 45.8224 32.912C45.7995 32.821 45.7444 32.755 45.6573 32.714C45.5747 32.673 45.4301 32.6434 45.2237 32.6252L44.0537 32.4955C43.7692 32.4636 43.5536 32.3976 43.4067 32.2974C43.2645 32.1927 43.1682 32.0584 43.1177 31.8945C43.0718 31.7261 43.0489 31.5075 43.0489 31.2389C43.0489 30.8656 43.1131 30.5833 43.2416 30.3921C43.3746 30.2009 43.5582 30.0734 43.7922 30.0097C44.0307 29.9459 44.3496 29.9141 44.7488 29.9141C45.0149 29.9141 45.2856 29.9254 45.5609 29.9482C45.8362 29.971 46.0541 29.9983 46.2147 30.0302V30.5492C46.0404 30.5219 45.8247 30.5014 45.5678 30.4877C45.3109 30.4695 45.0723 30.4604 44.852 30.4604C44.5951 30.4604 44.3886 30.4718 44.2326 30.4945C44.0766 30.5173 43.955 30.556 43.8679 30.6106C43.7715 30.6653 43.7096 30.7381 43.682 30.8292C43.6545 30.9202 43.6407 31.05 43.6407 31.2184C43.6407 31.4051 43.6545 31.5417 43.682 31.6282C43.7096 31.7101 43.7623 31.7716 43.8403 31.8126C43.9183 31.849 44.0468 31.8763 44.2257 31.8945L45.382 32.0243C45.6573 32.0516 45.8706 32.0994 46.022 32.1677C46.1734 32.236 46.2836 32.3589 46.3524 32.5364C46.4166 32.7003 46.4487 32.9621 46.4487 33.3218C46.4487 33.7361 46.3845 34.0457 46.256 34.2505C46.1276 34.4509 45.9555 34.5806 45.7399 34.6398C45.5242 34.6944 45.2283 34.7218 44.852 34.7218ZM53.537 34.6671V32.5842H51.0522V34.6671H50.4605V29.9687H51.0522V32.0174H53.537V29.9687H54.122V34.6671H53.537ZM58.3575 34.6671V29.9687H58.9492V34.6671H58.3575ZM64.9656 34.7218C64.3371 34.7218 63.8916 34.6603 63.6302 34.5374C63.3688 34.4144 63.2015 34.2005 63.1279 33.8954C63.0591 33.5858 63.0246 33.06 63.0246 32.3179C63.0246 31.5758 63.0591 31.0522 63.1279 30.7472C63.2015 30.4376 63.3688 30.2214 63.6302 30.0984C63.8916 29.9755 64.3371 29.9141 64.9656 29.9141C65.5893 29.9141 66.0323 29.9755 66.2938 30.0984C66.56 30.2214 66.7272 30.4376 66.7961 30.7472C66.8697 31.0522 66.9065 31.5758 66.9065 32.3179C66.9065 33.06 66.8697 33.5858 66.7961 33.8954C66.7272 34.2005 66.56 34.4144 66.2938 34.5374C66.0323 34.6603 65.5893 34.7218 64.9656 34.7218ZM64.9656 34.1754C65.4335 34.1754 65.7499 34.1458 65.9152 34.0866C66.0806 34.0275 66.1881 33.8795 66.2388 33.6428C66.289 33.406 66.3143 32.9644 66.3143 32.3179C66.3143 31.6714 66.289 31.2298 66.2388 30.9931C66.1881 30.7563 66.0806 30.6084 65.9152 30.5492C65.7499 30.49 65.4335 30.4604 64.9656 30.4604C64.4977 30.4604 64.1784 30.49 64.0087 30.5492C63.8438 30.6084 63.7358 30.7563 63.6852 30.9931C63.635 31.2298 63.6096 31.6714 63.6096 32.3179C63.6096 32.9644 63.635 33.406 63.6852 33.6428C63.7358 33.8795 63.8438 34.0275 64.0087 34.0866C64.1784 34.1458 64.4977 34.1754 64.9656 34.1754ZM74.0761 34.6671L71.5779 31.075H71.5502V34.6671H70.979V29.9687H71.5846L74.0483 33.4789H74.0761V29.9687H74.6405V34.6671H74.0761Z" fill="#4B3A63"/>
</g>
<defs>
<clipPath id="clip0_4114_135">
<rect width="104" height="34.762" fill="white"/>
</clipPath>
</defs>
</svg>
