<svg width="283" height="82" viewBox="0 0 283 82" fill="none" xmlns="http://www.w3.org/2000/svg">
<g clip-path="url(#clip0_217_184)">
<path d="M91.7468 57.2663V58.653H62.884V57.2476C66.9 57.2476 69.7733 54.2867 69.7733 48.6932V4.60982L44.3497 59.4119H42.7171L15.966 10.0441V37.8527C15.966 37.8527 15.77 57.2663 28.9607 57.2663V58.653H0V57.2476C14.3334 57.2476 14.3334 37.8339 14.3334 37.8339V7.82355C10.7092 2.30494 5.93143 2.30494 3.53709 2.14566V0.740234H27.622L50.6512 42.4625L69.7624 0.740234H90.876V2.14566C86.7731 2.14566 83.519 4.36621 83.519 9.38825V48.74C83.5297 54.3055 87.6437 57.2663 91.7468 57.2663Z" fill="white"/>
<path d="M163.36 30.1135C163.36 46.4913 151.388 59.4118 130.393 59.4118C109.4 59.4118 97.417 46.4913 97.417 30.1135C97.417 13.7356 109.389 0 130.393 0C151.399 0 163.36 13.8294 163.36 30.1135ZM146.827 30.1135C146.827 7.57054 141.669 1.40542 130.393 1.40542C119.119 1.40542 113.764 7.57054 113.764 30.1135C113.764 52.6564 119.02 58.0064 130.393 58.0064C141.767 58.0064 146.806 52.7408 146.806 30.1135H146.827Z" fill="white"/>
<path d="M189.055 57.2662H193.549C208.166 57.2662 218.962 44.5144 221.074 39.4643H222.794L220.399 58.6529H169.943L207.883 2.12685H203.388C190.676 2.12685 178.259 9.03216 174.906 17.3429H173.002L174.808 0.721436H224.415L189.055 57.2662Z" fill="white"/>
<path d="M283 40.7291V58.653H229.192V57.2476C233.208 57.2476 234.743 52.9751 234.743 47.3721V12.096C234.743 6.99904 233.405 2.14566 229.192 2.14566V0.740234H281.759V16.3779H280.138C277.96 2.14565 252.037 2.14566 252.037 2.14566H248.598V28.7175H252.037C252.037 28.7175 266.566 28.7175 267.524 20.1631H269.145V38.6772H267.524C266.566 30.1135 252.037 30.1135 252.037 30.1135H248.598V57.285H252.037C252.037 57.285 277.362 57.285 281.423 40.7479L283 40.7291Z" fill="white"/>
<path d="M115.233 46.7535C111.272 32.8586 123.548 30.2726 135.607 26.3749C142.691 24.042 145.195 19.7226 145.347 13.3701C146.022 15.3285 146.239 17.3822 145.989 19.4134C145.173 26.2344 136.988 29.2608 130.393 31.0596C120.076 33.8706 115.244 37.0187 115.233 46.7535Z" fill="white"/>
<path d="M79.7758 81.7764V70.6933H87.7913V71.9821H81.3864V75.7838H87.0797V77.0887H81.3864V81.7764H79.7758ZM106.06 81.7764L104.73 78.8284H98.9248L97.5951 81.7764H95.9658L100.835 70.6933H102.858L107.727 81.7764H106.06ZM101.865 72.1915H101.771L99.4117 77.5236H104.225L101.865 72.1915ZM122.049 81.9053C121.363 81.9053 120.595 81.8838 119.746 81.8408C118.909 81.7979 118.166 81.7442 117.517 81.6798V80.4071C119.14 80.5467 120.495 80.6166 121.581 80.6166C122.255 80.6166 122.786 80.5951 123.173 80.5521C123.572 80.4984 123.91 80.4071 124.184 80.2783C124.434 80.1494 124.596 79.9614 124.671 79.7144C124.746 79.4567 124.784 79.1184 124.784 78.6996C124.784 78.1948 124.752 77.8404 124.69 77.6364C124.627 77.4216 124.478 77.2659 124.24 77.1692C124.016 77.0725 123.622 77.0027 123.061 76.9598L119.877 76.6537C119.103 76.5785 118.516 76.4228 118.116 76.1865C117.729 75.9395 117.467 75.6227 117.33 75.2361C117.205 74.8387 117.143 74.3232 117.143 73.6896C117.143 72.809 117.317 72.1432 117.667 71.6921C118.029 71.241 118.528 70.9403 119.165 70.79C119.814 70.6396 120.682 70.5645 121.768 70.5645C122.493 70.5645 123.229 70.5913 123.978 70.645C124.727 70.6987 125.32 70.7631 125.757 70.8383V72.0626C125.283 71.9982 124.696 71.9498 123.997 71.9176C123.298 71.8747 122.649 71.8532 122.049 71.8532C121.35 71.8532 120.788 71.88 120.364 71.9337C119.939 71.9874 119.608 72.0787 119.371 72.2076C119.109 72.3365 118.94 72.5083 118.866 72.7231C118.791 72.9379 118.753 73.2439 118.753 73.6413C118.753 74.0816 118.791 74.4038 118.866 74.6078C118.94 74.8012 119.084 74.9461 119.296 75.0428C119.509 75.1287 119.858 75.1931 120.345 75.2361L123.491 75.5422C124.24 75.6066 124.821 75.7194 125.233 75.8805C125.645 76.0416 125.945 76.3315 126.132 76.7504C126.307 77.137 126.394 77.7545 126.394 78.6029C126.394 79.5802 126.219 80.3105 125.87 80.7938C125.52 81.2663 125.052 81.5724 124.465 81.712C123.878 81.8408 123.073 81.9053 122.049 81.9053ZM145.683 81.7764V76.8631H138.921V81.7764H137.311V70.6933H138.921V75.5261H145.683V70.6933H147.274V81.7764H145.683ZM158.8 81.7764V70.6933H160.41V81.7764H158.8ZM176.781 81.9053C175.071 81.9053 173.859 81.7603 173.148 81.4703C172.436 81.1804 171.981 80.6756 171.781 79.9561C171.593 79.2258 171.5 77.9854 171.5 76.2349C171.5 74.4843 171.593 73.2493 171.781 72.5298C171.981 71.7995 172.436 71.2894 173.148 70.9994C173.859 70.7094 175.071 70.5645 176.781 70.5645C178.479 70.5645 179.684 70.7094 180.396 70.9994C181.12 71.2894 181.575 71.7995 181.762 72.5298C181.963 73.2493 182.063 74.4843 182.063 76.2349C182.063 77.9854 181.963 79.2258 181.762 79.9561C181.575 80.6756 181.12 81.1804 180.396 81.4703C179.684 81.7603 178.479 81.9053 176.781 81.9053ZM176.781 80.6166C178.055 80.6166 178.915 80.5467 179.365 80.4071C179.815 80.2675 180.108 79.9185 180.246 79.36C180.383 78.8016 180.451 77.7599 180.451 76.2349C180.451 74.7099 180.383 73.6681 180.246 73.1097C180.108 72.5512 179.815 72.2022 179.365 72.0626C178.915 71.923 178.055 71.8532 176.781 71.8532C175.508 71.8532 174.639 71.923 174.178 72.0626C173.729 72.2022 173.435 72.5512 173.297 73.1097C173.161 73.6681 173.092 74.7099 173.092 76.2349C173.092 77.7599 173.161 78.8016 173.297 79.36C173.435 79.9185 173.729 80.2675 174.178 80.4071C174.639 80.5467 175.508 80.6166 176.781 80.6166ZM201.572 81.7764L194.774 73.303H194.699V81.7764H193.145V70.6933H194.793L201.497 78.9734H201.572V70.6933H203.108V81.7764H201.572Z" fill="white"/>
</g>
<defs>
<clipPath id="clip0_217_184">
<rect width="283" height="82" fill="white"/>
</clipPath>
</defs>
</svg>
