<svg width="361" height="38" viewBox="0 0 361 38" fill="none" xmlns="http://www.w3.org/2000/svg">
<path d="M30.3467 37.4756C29.0771 36.9059 27.9948 36.3444 27.0996 35.791C26.2207 35.2376 25.4395 34.6924 24.7559 34.1553C23.6328 35.0667 22.2412 35.7747 20.5811 36.2793C18.9209 36.7676 16.9027 37.0117 14.5264 37.0117C9.56217 37.0117 5.90007 35.8317 3.54004 33.4717C1.18001 31.0954 0 27.1647 0 21.6797V0.610352H7.22656V20.6543C7.22656 23.8118 7.45443 26.0254 7.91016 27.2949C8.36589 28.5482 9.12272 29.4922 10.1807 30.127C11.2386 30.7617 12.6872 31.0791 14.5264 31.0791C15.6169 31.0791 16.569 31.014 17.3828 30.8838C18.1966 30.7373 18.8965 30.5339 19.4824 30.2734C18.929 29.9805 18.3105 29.6956 17.627 29.4189C16.9434 29.126 16.1621 28.8411 15.2832 28.5645L17.4072 22.4365C18.4163 22.8434 19.3115 23.2666 20.0928 23.7061C20.874 24.1455 21.5902 24.6012 22.2412 25.0732C22.2087 24.3896 22.1273 23.6816 21.9971 22.9492C21.8831 22.2005 21.8262 21.4355 21.8262 20.6543V0.610352H29.0527V21.6797C29.0527 23.1283 28.9714 24.5036 28.8086 25.8057C28.6458 27.1077 28.361 28.3203 27.9541 29.4434C28.5889 29.834 29.2887 30.2165 30.0537 30.5908C30.8187 30.9489 31.6895 31.2907 32.666 31.6162L30.3467 37.4756ZM46.4844 7.66602C45.8171 7.37305 44.9707 7.15332 43.9453 7.00684C42.9362 6.86035 41.8213 6.78711 40.6006 6.78711H37.9639V0.610352H42.5781C44.1895 0.610352 45.5973 0.716146 46.8018 0.927734C48.0062 1.13932 49.0967 1.45671 50.0732 1.87988L63.6719 8.00781V15.332L55.835 11.8408C55.3467 11.7106 54.8503 11.613 54.3457 11.5479C53.8574 11.4827 53.3773 11.4502 52.9053 11.4502C50.2035 11.4502 47.9818 12.4023 46.2402 14.3066C44.4987 16.1947 43.6279 18.8721 43.6279 22.3389C43.6279 25.2523 44.2301 27.4251 45.4346 28.8574C46.639 30.2897 48.4782 31.0059 50.9521 31.0059C53.4098 31.0059 55.2327 30.3548 56.4209 29.0527C57.609 27.7507 58.2031 25.708 58.2031 22.9248C58.2031 22.6318 58.195 22.404 58.1787 22.2412L65.4297 20.5566C65.5273 21.3867 65.5762 22.2575 65.5762 23.1689C65.5762 27.5146 64.2741 30.9001 61.6699 33.3252C59.082 35.734 55.5094 36.9385 50.9521 36.9385C46.2646 36.9385 42.6188 35.6771 40.0146 33.1543C37.4268 30.6152 36.1328 27.0752 36.1328 22.5342C36.1328 18.5628 37.1745 15.2588 39.2578 12.6221C41.3411 9.98535 44.0348 8.46354 47.3389 8.05664L46.4844 7.66602ZM79.3945 15.8691V36.4014H72.168V15.332C72.168 9.7168 73.3236 5.76172 75.6348 3.4668C77.9622 1.1556 81.5674 0 86.4502 0C91.333 0 94.93 1.14746 97.2412 3.44238C99.5687 5.7373 100.732 9.70052 100.732 15.332V36.4014H93.5059V15.8691C93.5059 12.9232 93.2861 10.8643 92.8467 9.69238C92.4235 8.50423 91.7155 7.58464 90.7227 6.93359C89.7298 6.26628 88.3057 5.93262 86.4502 5.93262C84.5947 5.93262 83.1706 6.26628 82.1777 6.93359C81.1849 7.58464 80.4688 8.50423 80.0293 9.69238C79.6061 10.8643 79.3945 12.9232 79.3945 15.8691ZM115.527 16.5283V36.4014H108.301V0.610352H115.527V10.4736H130.981V16.5283H115.527ZM144.312 21.1426C144.312 23.8932 144.523 25.9277 144.946 27.2461C145.369 28.5645 146.086 29.5329 147.095 30.1514C148.104 30.7699 149.528 31.0791 151.367 31.0791C153.206 31.0791 154.631 30.7699 155.64 30.1514C156.649 29.5329 157.365 28.5645 157.788 27.2461C158.211 25.9277 158.423 23.8932 158.423 21.1426V20.0684H165.649V21.6797C165.649 27.3112 164.486 31.2744 162.158 33.5693C159.847 35.8643 156.25 37.0117 151.367 37.0117C146.484 37.0117 142.879 35.8643 140.552 33.5693C138.241 31.2581 137.085 27.2949 137.085 21.6797V6.66504H131.006V0.610352H144.312V21.1426ZM184.595 26.8555V19.9951H198.071V26.8555H184.595ZM241.162 27.417C242.057 28.1494 242.912 28.8981 243.726 29.6631C244.556 30.4118 245.361 31.1686 246.143 31.9336L241.724 37.3291C240.894 36.4827 240.055 35.6527 239.209 34.8389C238.363 34.0088 237.492 33.2113 236.597 32.4463C234.904 33.8298 233.04 34.9202 231.006 35.7178C228.988 36.499 226.855 36.8896 224.609 36.8896C222.021 36.8896 219.857 36.1572 218.115 34.6924C216.39 33.2275 215.527 31.2988 215.527 28.9062C215.527 26.4323 216.431 24.4792 218.237 23.0469C220.044 21.5983 222.428 20.874 225.391 20.874C227.214 20.874 228.963 21.1263 230.64 21.6309C232.316 22.1191 233.936 22.7783 235.498 23.6084C236.263 22.1273 236.849 20.5485 237.256 18.8721C237.679 17.1956 237.891 15.4948 237.891 13.7695C237.891 11.1491 237.264 9.18783 236.011 7.88574C234.757 6.58366 232.951 5.93262 230.591 5.93262C228.198 5.93262 226.392 6.57552 225.171 7.86133C223.95 9.13086 223.34 11.1816 223.34 14.0137C223.34 14.3066 223.348 14.5345 223.364 14.6973L216.113 16.3818C216.016 15.5518 215.967 14.681 215.967 13.7695C215.967 9.4401 217.261 6.06283 219.849 3.6377C222.437 1.21257 226.017 0 230.591 0C235.164 0 238.77 1.2207 241.406 3.66211C244.043 6.08724 245.361 9.45638 245.361 13.7695C245.361 16.2598 244.987 18.6686 244.238 20.9961C243.506 23.3073 242.48 25.4476 241.162 27.417ZM222.241 28.9062C222.241 29.6387 222.502 30.1839 223.022 30.542C223.543 30.9001 224.211 31.0791 225.024 31.0791C226.213 31.0791 227.376 30.8757 228.516 30.4688C229.671 30.0456 230.713 29.4678 231.641 28.7354C230.55 28.1169 229.419 27.6286 228.247 27.2705C227.091 26.9124 225.985 26.7334 224.927 26.7334C224.129 26.7334 223.478 26.9287 222.974 27.3193C222.485 27.6937 222.241 28.2227 222.241 28.9062ZM273.291 0.610352H286.621V6.66504H280.518V21.6797C280.518 27.2949 279.354 31.2581 277.026 33.5693C274.715 35.8643 271.118 37.0117 266.235 37.0117C261.353 37.0117 257.747 35.8643 255.42 33.5693C253.109 31.2581 251.953 27.2949 251.953 21.6797V0.610352H259.18V21.1426C259.18 23.8932 259.391 25.9277 259.814 27.2461C260.238 28.5645 260.954 29.5329 261.963 30.1514C262.972 30.7699 264.396 31.0791 266.235 31.0791C268.075 31.0791 269.499 30.7699 270.508 30.1514C271.517 29.5329 272.233 28.5645 272.656 27.2461C273.079 25.9277 273.291 23.8932 273.291 21.1426V0.610352ZM311.621 20.9229H318.848V22.0459C318.848 27.4658 317.684 31.3151 315.356 33.5938C313.029 35.8724 309.432 37.0117 304.565 37.0117C299.683 37.0117 296.077 35.8643 293.75 33.5693C291.439 31.2581 290.283 27.2949 290.283 21.6797V0.610352H297.51V10.4736H319.824V16.5283H297.51V21.1426C297.51 24.0723 297.721 26.1475 298.145 27.3682C298.584 28.5726 299.3 29.4922 300.293 30.127C301.302 30.7617 302.726 31.0791 304.565 31.0791C306.388 31.0791 307.796 30.7699 308.789 30.1514C309.798 29.5166 310.522 28.6214 310.962 27.4658C311.401 26.2939 311.621 24.3083 311.621 21.5088V20.9229ZM347.51 15.8691C347.51 13.1185 347.298 11.084 346.875 9.76562C346.452 8.44727 345.736 7.47884 344.727 6.86035C343.717 6.24186 342.293 5.93262 340.454 5.93262C338.615 5.93262 337.191 6.24186 336.182 6.86035C335.173 7.47884 334.456 8.44727 334.033 9.76562C333.61 11.084 333.398 13.1185 333.398 15.8691V36.4014H326.172V15.332C326.172 9.7168 327.327 5.76172 329.639 3.4668C331.966 1.1556 335.571 0 340.454 0C345.337 0 348.934 1.1556 351.245 3.4668C353.573 5.76172 354.736 9.7168 354.736 15.332V21.7529H360.84V27.8076H354.736V36.4014H347.51V15.8691Z" fill="white"/>
</svg>
