<svg width="241" height="23" viewBox="0 0 241 23" fill="none" xmlns="http://www.w3.org/2000/svg">
<path d="M17.666 11.7334H20.5078V13.5059C20.5078 16.3672 19.7803 18.5352 18.3252 20.0098C16.8701 21.4746 14.7803 22.207 12.0557 22.207C9.31152 22.207 7.2168 21.4697 5.77148 19.9951C4.32617 18.5205 3.60352 16.3574 3.60352 13.5059V2.90039H0V0.366211H6.44531V13.6523C6.44531 15.7715 6.89941 17.3145 7.80762 18.2812C8.71582 19.2383 10.1318 19.7168 12.0557 19.7168C13.9697 19.7168 15.3809 19.2383 16.2891 18.2812C17.207 17.3242 17.666 15.7812 17.666 13.6523V11.7334ZM38.0127 8.55469C38.0127 6.47461 37.5635 4.94629 36.665 3.96973C35.7764 2.9834 34.3555 2.49023 32.4023 2.49023C30.4492 2.49023 29.0234 2.9834 28.125 3.96973C27.2363 4.94629 26.792 6.47461 26.792 8.55469V21.8408H23.9502V8.70117C23.9502 5.84961 24.6729 3.68652 26.1182 2.21191C27.5635 0.737305 29.6582 0 32.4023 0C35.127 0 37.2168 0.737305 38.6719 2.21191C40.127 3.67676 40.8545 5.83984 40.8545 8.70117V21.8408H38.0127V8.55469ZM59.751 8.55469C59.751 6.47461 59.3018 4.94629 58.4033 3.96973C57.5146 2.9834 56.0938 2.49023 54.1406 2.49023C52.1875 2.49023 50.7617 2.9834 49.8633 3.96973C48.9746 4.94629 48.5303 6.47461 48.5303 8.55469V21.8408H45.6885V8.70117C45.6885 5.84961 46.4111 3.68652 47.8564 2.21191C49.3018 0.737305 51.3965 0 54.1406 0C56.8652 0 58.9551 0.737305 60.4102 2.21191C61.8652 3.67676 62.5928 5.83984 62.5928 8.70117V10.4736H59.751V8.55469ZM73.3301 14.9414L76.0107 14.707C76.1377 15.7812 76.4307 16.665 76.8896 17.3584C77.3584 18.042 78.0811 18.5986 79.0576 19.0283C80.0342 19.4482 81.1328 19.6582 82.3535 19.6582C83.4375 19.6582 84.3945 19.4971 85.2246 19.1748C86.0547 18.8525 86.6699 18.4131 87.0703 17.8564C87.4805 17.29 87.6855 16.6748 87.6855 16.0107C87.6855 15.3369 87.4902 14.751 87.0996 14.2529C86.709 13.7451 86.0645 13.3203 85.166 12.9785C84.5898 12.7539 83.3154 12.4072 81.3428 11.9385C79.3701 11.46 77.9883 11.0107 77.1973 10.5908C76.1719 10.0537 75.4053 9.38965 74.8975 8.59863C74.3994 7.79785 74.1504 6.9043 74.1504 5.91797C74.1504 4.83398 74.458 3.82324 75.0732 2.88574C75.6885 1.93848 76.5869 1.2207 77.7686 0.732422C78.9502 0.244141 80.2637 0 81.709 0C83.3008 0 84.7021 0.258789 85.9131 0.776367C87.1338 1.28418 88.0713 2.03613 88.7256 3.03223C89.3799 4.02832 89.7314 5.15625 89.7803 6.41602L87.0557 6.62109C86.9092 5.26367 86.4111 4.23828 85.5615 3.54492C84.7217 2.85156 83.4766 2.50488 81.8262 2.50488C80.1074 2.50488 78.8525 2.82227 78.0615 3.45703C77.2803 4.08203 76.8896 4.83887 76.8896 5.72754C76.8896 6.49902 77.168 7.13379 77.7246 7.63184C78.2715 8.12988 79.6973 8.64258 82.002 9.16992C84.3164 9.6875 85.9033 10.1416 86.7627 10.5322C88.0127 11.1084 88.9355 11.8408 89.5312 12.7295C90.127 13.6084 90.4248 14.624 90.4248 15.7764C90.4248 16.9189 90.0977 17.998 89.4434 19.0137C88.7891 20.0195 87.8467 20.8057 86.6162 21.3721C85.3955 21.9287 84.0186 22.207 82.4854 22.207C80.542 22.207 78.9111 21.9238 77.5928 21.3574C76.2842 20.791 75.2539 19.9414 74.502 18.8086C73.7598 17.666 73.3691 16.377 73.3301 14.9414ZM108.267 11.7334H111.108V13.5059C111.108 16.3672 110.381 18.5352 108.926 20.0098C107.471 21.4746 105.381 22.207 102.656 22.207C99.9121 22.207 97.8174 21.4697 96.3721 19.9951C94.9268 18.5205 94.2041 16.3574 94.2041 13.5059V0.366211H97.0459V6.28418H111.343V8.81836H97.0459V13.6523C97.0459 15.7715 97.5 17.3145 98.4082 18.2812C99.3164 19.2383 100.732 19.7168 102.656 19.7168C104.57 19.7168 105.981 19.2383 106.89 18.2812C107.808 17.3242 108.267 15.7812 108.267 13.6523V11.7334ZM130.005 0.366211H132.847V13.5059C132.847 16.3672 132.119 18.5352 130.664 20.0098C129.209 21.4746 127.119 22.207 124.395 22.207C121.65 22.207 119.556 21.4697 118.11 19.9951C116.665 18.5205 115.942 16.3574 115.942 13.5059V0.366211H118.784V13.6523C118.784 15.7715 119.238 17.3145 120.146 18.2812C121.055 19.2383 122.471 19.7168 124.395 19.7168C126.309 19.7168 127.72 19.2383 128.628 18.2812C129.546 17.3242 130.005 15.7812 130.005 13.6523V0.366211ZM152.036 0.366211H154.878V13.5059C154.878 14.5312 154.785 15.4443 154.6 16.2451C154.414 17.0459 154.155 17.7588 153.823 18.3838C154.204 18.6475 154.639 18.9014 155.127 19.1455C155.615 19.3896 156.201 19.6143 156.885 19.8193L155.918 22.3242C155.156 22.0801 154.492 21.7773 153.926 21.416C153.359 21.0547 152.832 20.6787 152.344 20.2881C151.553 20.9814 150.63 21.4746 149.575 21.7676C148.53 22.0605 147.432 22.207 146.279 22.207C143.516 22.207 141.392 21.4697 139.907 19.9951C138.423 18.5107 137.681 16.3477 137.681 13.5059V0.366211H140.522V13.6523C140.522 15.7129 140.986 17.2412 141.914 18.2373C142.852 19.2236 144.307 19.7168 146.279 19.7168C147.227 19.7168 148.027 19.6387 148.682 19.4824C149.346 19.3164 149.897 19.0625 150.337 18.7207C149.907 18.4277 149.438 18.1592 148.931 17.915C148.423 17.6611 147.847 17.4561 147.202 17.2998L148.037 14.707C148.701 14.9121 149.336 15.1709 149.941 15.4834C150.547 15.7959 151.133 16.1816 151.699 16.6406C151.816 16.2305 151.899 15.7764 151.948 15.2783C152.007 14.7803 152.036 14.2383 152.036 13.6523V0.366211ZM176.03 21.8408H173.188V14.8242C172.554 15.4395 171.787 15.9082 170.889 16.2305C170 16.543 168.994 16.6992 167.871 16.6992C165.234 16.6992 163.213 15.9668 161.807 14.502C160.41 13.0273 159.712 10.8594 159.712 7.99805V0.366211H162.554V8.14453C162.554 10.2637 162.974 11.8066 163.813 12.7734C164.653 13.7305 166.006 14.209 167.871 14.209C169.697 14.209 171.04 13.7402 171.899 12.8027C172.759 11.8555 173.188 10.4053 173.188 8.45215V6.28418H176.03V21.8408ZM195.073 0.366211H197.915V13.5059C197.915 14.5312 197.822 15.4443 197.637 16.2451C197.451 17.0459 197.192 17.7588 196.86 18.3838C197.241 18.6475 197.676 18.9014 198.164 19.1455C198.652 19.3896 199.238 19.6143 199.922 19.8193L198.955 22.3242C198.193 22.0801 197.529 21.7773 196.963 21.416C196.396 21.0547 195.869 20.6787 195.381 20.2881C194.59 20.9814 193.667 21.4746 192.612 21.7676C191.567 22.0605 190.469 22.207 189.316 22.207C186.553 22.207 184.429 21.4697 182.944 19.9951C181.46 18.5107 180.718 16.3477 180.718 13.5059V0.366211H183.56V13.6523C183.56 15.7129 184.023 17.2412 184.951 18.2373C185.889 19.2236 187.344 19.7168 189.316 19.7168C190.264 19.7168 191.064 19.6387 191.719 19.4824C192.383 19.3164 192.935 19.0625 193.374 18.7207C192.944 18.4277 192.476 18.1592 191.968 17.915C191.46 17.6611 190.884 17.4561 190.239 17.2998L191.074 14.707C191.738 14.9121 192.373 15.1709 192.979 15.4834C193.584 15.7959 194.17 16.1816 194.736 16.6406C194.854 16.2305 194.937 15.7764 194.985 15.2783C195.044 14.7803 195.073 14.2383 195.073 13.6523V0.366211ZM217.852 11.7334H220.693V13.5059C220.693 16.3672 219.966 18.5352 218.511 20.0098C217.056 21.4746 214.966 22.207 212.241 22.207C209.497 22.207 207.402 21.4697 205.957 19.9951C204.512 18.5205 203.789 16.3574 203.789 13.5059V2.90039H200.186V0.366211H206.631V13.6523C206.631 15.7715 207.085 17.3145 207.993 18.2812C208.901 19.2383 210.317 19.7168 212.241 19.7168C214.155 19.7168 215.566 19.2383 216.475 18.2812C217.393 17.3242 217.852 15.7812 217.852 13.6523V11.7334ZM224.136 21.8408V0.366211H226.978V7.67578C227.612 7.06055 228.374 6.59668 229.263 6.28418C230.151 5.96191 231.162 5.80078 232.295 5.80078C234.932 5.80078 236.948 6.53809 238.345 8.0127C239.751 9.47754 240.454 11.6406 240.454 14.502V16.2744H237.612V14.3555C237.612 12.2363 237.192 10.6982 236.353 9.74121C235.513 8.77441 234.16 8.29102 232.295 8.29102C230.518 8.29102 229.194 8.74512 228.325 9.65332C227.466 10.5518 227.017 12.0166 226.978 14.0479V21.8408H224.136Z" fill="white"/>
</svg>
