<svg width="352" height="56" viewBox="0 0 352 56" fill="none" xmlns="http://www.w3.org/2000/svg">
<rect x="1" y="1" width="350" height="54" rx="9" stroke="#4B3A63" stroke-width="2"/>
<path d="M109.472 27.5439C109.583 28.3994 109.855 29.0293 110.289 29.4336C110.723 29.832 111.367 30.0312 112.223 30.0312C113.049 30.0312 113.676 29.8789 114.104 29.5742C114.537 29.2637 114.754 28.8242 114.754 28.2559C114.754 27.8926 114.596 27.585 114.279 27.333C113.969 27.0752 113.26 26.8027 112.152 26.5156L111.054 26.2344C109.782 25.9121 108.845 25.4521 108.241 24.8545C107.644 24.2568 107.345 23.4688 107.345 22.4902C107.345 21.4004 107.772 20.5303 108.628 19.8799C109.483 19.2236 110.623 18.8955 112.047 18.8955C113.582 18.8955 114.777 19.2354 115.633 19.915C116.488 20.5947 116.939 21.5557 116.986 22.7979L114.385 22.9121C114.326 22.2617 114.101 21.79 113.708 21.4971C113.321 21.1982 112.759 21.0488 112.021 21.0488C111.329 21.0488 110.79 21.1572 110.403 21.374C110.022 21.585 109.832 21.8984 109.832 22.3145C109.832 22.6953 110.037 23.0029 110.447 23.2373C110.863 23.4717 111.543 23.6973 112.486 23.9141C113.436 24.1309 114.265 24.3857 114.974 24.6787C115.688 24.9717 116.263 25.3994 116.696 25.9619C117.136 26.5186 117.355 27.2217 117.355 28.0713C117.355 29.4014 116.901 30.4268 115.993 31.1475C115.085 31.8682 113.819 32.2285 112.196 32.2285C110.556 32.2285 109.287 31.8564 108.391 31.1123C107.494 30.3623 106.99 29.2607 106.879 27.8076L109.472 27.5439ZM128.386 24.6611H121.979V27.4297C121.979 28.4316 122.031 29.082 122.137 29.3809C122.242 29.6738 122.412 29.9053 122.646 30.0752C122.881 30.2393 123.168 30.3213 123.508 30.3213C123.953 30.3213 124.349 30.1924 124.694 29.9346C125.046 29.6768 125.274 29.3516 125.38 28.959C125.491 28.5605 125.547 27.875 125.547 26.9023V26.542H128.017V32H125.723V30.6289C124.902 31.6836 123.877 32.2109 122.646 32.2109C121.932 32.2109 121.337 32.0674 120.862 31.7803C120.388 31.4932 120.042 31.1211 119.825 30.6641C119.614 30.207 119.509 29.4746 119.509 28.4668V19.1152H121.979V22.666H128.386V24.6611ZM130.521 22.666H132.991V27.4297C132.991 28.4316 133.044 29.082 133.149 29.3809C133.255 29.6738 133.425 29.9053 133.659 30.0752C133.894 30.2393 134.181 30.3213 134.521 30.3213C134.983 30.3213 135.394 30.1836 135.751 29.9082C136.108 29.6328 136.331 29.2842 136.419 28.8623C136.513 28.4404 136.56 27.7842 136.56 26.8936V22.666H139.029V32H136.735V30.6289C135.915 31.6836 134.89 32.2109 133.659 32.2109C132.944 32.2109 132.35 32.0674 131.875 31.7803C131.4 31.4932 131.055 31.1211 130.838 30.6641C130.627 30.207 130.521 29.4746 130.521 28.4668V22.666ZM141.587 21.1104H139.565V19.1152H144.057V27.4297C144.057 28.4316 144.109 29.082 144.215 29.3809C144.32 29.6738 144.49 29.9053 144.725 30.0752C144.959 30.2393 145.246 30.3213 145.586 30.3213C146.049 30.3213 146.459 30.1836 146.816 29.9082C147.174 29.6328 147.396 29.2842 147.484 28.8623C147.578 28.4404 147.625 27.7842 147.625 26.8936V22.666H150.095V32H147.801V30.6289C146.98 31.6836 145.955 32.2109 144.725 32.2109C144.01 32.2109 143.415 32.0674 142.94 31.7803C142.466 31.4932 142.12 31.1211 141.903 30.6641C141.692 30.207 141.587 29.4746 141.587 28.4668V21.1104ZM161.521 24.6611H155.113V27.4297C155.113 28.4316 155.166 29.082 155.271 29.3809C155.377 29.6738 155.547 29.9053 155.781 30.0752C156.016 30.2393 156.303 30.3213 156.643 30.3213C157.088 30.3213 157.483 30.1924 157.829 29.9346C158.181 29.6768 158.409 29.3516 158.515 28.959C158.626 28.5605 158.682 27.875 158.682 26.9023V26.542H161.151V32H158.857V30.6289C158.037 31.6836 157.012 32.2109 155.781 32.2109C155.066 32.2109 154.472 32.0674 153.997 31.7803C153.522 31.4932 153.177 31.1211 152.96 30.6641C152.749 30.207 152.644 29.4746 152.644 28.4668V19.1152H155.113V22.666H161.521V24.6611ZM166.17 33.5557H168.279V35.5508H163.7V22.666H166.17V33.5557ZM187.396 32H185.119V30.7256C184.709 31.2236 184.267 31.5957 183.792 31.8418C183.323 32.0879 182.805 32.2109 182.236 32.2109C181.041 32.2109 180.162 31.7158 179.6 30.7256C178.785 31.7158 177.836 32.2109 176.752 32.2109C176.043 32.2109 175.463 32.0732 175.012 31.7979C174.561 31.5225 174.227 31.1621 174.01 30.7168C173.799 30.2715 173.693 29.5771 173.693 28.6338V22.666H176.163V28.001C176.163 29.0439 176.283 29.6914 176.523 29.9434C176.77 30.1953 177.086 30.3213 177.473 30.3213C177.953 30.3213 178.378 30.125 178.747 29.7324C179.122 29.3398 179.31 28.4785 179.31 27.1484V22.666H181.779V27.7812C181.779 28.6836 181.82 29.2666 181.902 29.5303C181.99 29.7939 182.125 29.9932 182.307 30.1279C182.494 30.2568 182.749 30.3213 183.071 30.3213C183.446 30.3213 183.78 30.2217 184.073 30.0225C184.366 29.8232 184.58 29.5361 184.715 29.1611C184.855 28.7861 184.926 28.1328 184.926 27.2012V22.666H187.396V32ZM195.938 19.1152H200.518V21.1104H198.408V32H196.114V30.6289C195.294 31.6836 194.269 32.2109 193.038 32.2109C192.323 32.2109 191.729 32.0674 191.254 31.7803C190.779 31.4932 190.434 31.1211 190.217 30.6641C190.006 30.207 189.9 29.4746 189.9 28.4668V22.666H192.37V27.4297C192.37 28.4316 192.423 29.082 192.528 29.3809C192.634 29.6738 192.804 29.9053 193.038 30.0752C193.272 30.2393 193.56 30.3213 193.899 30.3213C194.362 30.3213 194.772 30.1836 195.13 29.9082C195.487 29.6328 195.71 29.2842 195.798 28.8623C195.892 28.4404 195.938 27.7842 195.938 26.8936V19.1152ZM203.436 30.0049H209.843V32H203.436V35.5508H200.966V22.666H203.26V24.0371C204.074 22.9824 205.1 22.4551 206.336 22.4551C207.039 22.4551 207.631 22.6016 208.111 22.8945C208.598 23.1816 208.946 23.5566 209.157 24.0195C209.368 24.4766 209.474 25.2031 209.474 26.1992V28.124H207.004V27.2363C207.004 26.3516 206.963 25.7451 206.881 25.417C206.805 25.0889 206.644 24.8281 206.397 24.6348C206.151 24.4414 205.844 24.3447 205.475 24.3447C205.012 24.3447 204.602 24.4824 204.244 24.7578C203.887 25.0332 203.661 25.3818 203.567 25.8037C203.479 26.2256 203.436 26.8818 203.436 27.7725V30.0049ZM220.495 32H218.025V27.2363C218.025 26.3516 217.984 25.7451 217.902 25.417C217.826 25.0889 217.665 24.8281 217.419 24.6348C217.173 24.4414 216.865 24.3447 216.496 24.3447C216.033 24.3447 215.623 24.4824 215.266 24.7578C214.908 25.0332 214.683 25.3818 214.589 25.8037C214.501 26.2256 214.457 26.8818 214.457 27.7725V32H211.987V22.666H214.281V24.0371C215.096 22.9824 216.121 22.4551 217.357 22.4551C218.061 22.4551 218.652 22.6016 219.133 22.8945C219.619 23.1816 219.968 23.5566 220.179 24.0195C220.39 24.4766 220.495 25.2031 220.495 26.1992V32ZM231.517 33.5557H233.626V35.5508H229.047V27.2363C229.047 26.3516 229.006 25.7451 228.924 25.417C228.848 25.0889 228.687 24.8281 228.44 24.6348C228.194 24.4414 227.887 24.3447 227.518 24.3447C227.055 24.3447 226.645 24.4824 226.287 24.7578C225.93 25.0332 225.704 25.3818 225.61 25.8037C225.522 26.2256 225.479 26.8818 225.479 27.7725V32H223.009V22.666H225.303V24.0371C226.117 22.9824 227.143 22.4551 228.379 22.4551C229.082 22.4551 229.674 22.6016 230.154 22.8945C230.641 23.1816 230.989 23.5566 231.2 24.0195C231.411 24.4766 231.517 25.2031 231.517 26.1992V33.5557ZM233.758 25.9531C233.758 24.9453 234.165 24.1104 234.979 23.4482C235.794 22.7861 236.79 22.4551 237.968 22.4551C239.263 22.4551 240.294 22.7949 241.062 23.4746C241.829 24.1543 242.213 25.0508 242.213 26.1641C242.213 27.1836 241.826 28.1768 241.053 29.1436C240.285 30.1045 239.312 30.9922 238.135 31.8066C236.963 32.6152 236.377 33.1279 236.377 33.3447C236.377 33.4092 236.392 33.4619 236.421 33.5029C236.456 33.5498 236.515 33.5732 236.597 33.5732H241.896V35.5508H235.542C235.044 35.5508 234.622 35.4014 234.276 35.1025C233.937 34.8096 233.767 34.4082 233.767 33.8984C233.767 33.7051 233.805 33.5088 233.881 33.3096C233.963 33.1162 234.127 32.876 234.373 32.5889C234.625 32.3018 234.848 32.0732 235.041 31.9033C235.234 31.7275 235.393 31.4873 235.516 31.1826C235.645 30.8779 235.709 30.5762 235.709 30.2773C235.709 29.6387 235.478 29.0674 235.015 28.5635C234.558 28.0537 234.232 27.6143 234.039 27.2451C233.852 26.876 233.758 26.4453 233.758 25.9531ZM237.977 24.4414C237.432 24.4414 237.01 24.5732 236.711 24.8369C236.412 25.1006 236.263 25.4756 236.263 25.9619C236.263 26.4014 236.471 26.8584 236.887 27.333C237.309 27.8018 237.52 28.3291 237.52 28.915C237.52 29.0674 237.502 29.2432 237.467 29.4424C237.438 29.6357 237.373 29.8203 237.273 29.9961C238.146 29.252 238.768 28.5811 239.137 27.9834C239.512 27.3857 239.699 26.7969 239.699 26.2168C239.699 25.6543 239.535 25.2178 239.207 24.9072C238.885 24.5967 238.475 24.4414 237.977 24.4414ZM253.226 35.5508H244.349V22.666H246.643V24.0371C247.457 22.9824 248.482 22.4551 249.719 22.4551C250.422 22.4551 251.014 22.6016 251.494 22.8945C251.98 23.1816 252.329 23.5566 252.54 24.0195C252.751 24.4766 252.856 25.2031 252.856 26.1992V32H250.387V27.2363C250.387 26.3516 250.346 25.7451 250.264 25.417C250.188 25.0889 250.026 24.8281 249.78 24.6348C249.534 24.4414 249.227 24.3447 248.857 24.3447C248.395 24.3447 247.984 24.4824 247.627 24.7578C247.27 25.0332 247.044 25.3818 246.95 25.8037C246.862 26.2256 246.818 26.8818 246.818 27.7725V33.5557H253.226V35.5508Z" fill="#4B3A63"/>
</svg>
